<svg xmlns="http://www.w3.org/2000/svg" version="1.1" xmlns:xlink="http://www.w3.org/1999/xlink" xmlns:svgjs="http://svgjs.com/svgjs" width="1000" height="374" viewBox="0 0 1000 374"><g transform="matrix(1,0,0,1,-0.7872340425531661,-0.9562500000000114)"><svg xmlns="http://www.w3.org/2000/svg" data-version="3.4.38" data-background-color="#28353B" width="1000" height="374" viewBox="0 0 235 88"><g transform="matrix(1,0,0,1,69.99999999999999,70)"><g id="character" width="159.285" height="159.285" style="display: none;" transform="matrix(1,0,0,1,69.99999999999999,70)"><path d="M80.8 39.82Q87.62 39.82 92.9 42.24 98.18 44.66 102.47 49.39L102.47 49.39 95.43 57.53Q89.05 51.48 82.23 51.48L82.23 51.48Q78.27 51.48 75.96 53.85 73.65 56.21 73.65 60.17L73.65 60.17Q73.65 64.02 76.18 66.55 78.71 69.08 85.75 71.94L85.75 71.94Q92.13 74.58 96.03 77.55 99.94 80.52 102.08 84.92 104.23 89.32 104.23 95.81L104.23 95.81Q104.23 102.52 101.15 107.91 98.07 113.3 92.35 116.38 86.63 119.46 79.04 119.46L79.04 119.46Q71.23 119.46 65.45 116.66 59.68 113.85 55.06 108.9L55.06 108.9 62.65 100.54Q66.5 104.06 70.18 105.88 73.87 107.69 78.05 107.69L78.05 107.69Q82.89 107.69 85.47 104.78 88.06 101.86 88.06 96.91L88.06 96.91Q88.06 92.4 85.64 89.6 83.22 86.79 76.84 84.15L76.84 84.15Q66.5 79.86 62.1 74.58 57.7 69.3 57.7 61.27L57.7 61.27Q57.7 55 60.67 50.16 63.64 45.32 68.92 42.57 74.2 39.82 80.8 39.82L80.8 39.82Z" fill="#ffffff"></path></g></g><g id="tight-bounds" transform="matrix(1,0,0,1,0.18499999999998806,0.22500000000000142)"><g></g><g><svg version="1.1" xmlns:xlink="http://www.w3.org/1999/xlink" xmlns:svgjs="http://svgjs.com/svgjs" viewBox="0.2 -35.4 234.63000000000002 87.55" width="234.63000000000002" height="87.55" x="0" y="0" data-palette-color="#ffffff"><path d="M11.9-35.4Q15-35.4 17.4-34.3 19.8-33.2 21.75-31.05L21.75-31.05 18.55-27.35Q15.65-30.1 12.55-30.1L12.55-30.1Q10.75-30.1 9.7-29.03 8.65-27.95 8.65-26.15L8.65-26.15Q8.65-24.4 9.8-23.25 10.95-22.1 14.15-20.8L14.15-20.8Q17.05-19.6 18.82-18.25 20.6-16.9 21.58-14.9 22.55-12.9 22.55-9.95L22.55-9.95Q22.55-6.9 21.15-4.45 19.75-2 17.15-0.6 14.55 0.8 11.1 0.8L11.1 0.8Q7.55 0.8 4.93-0.48 2.3-1.75 0.2-4L0.2-4 3.65-7.8Q5.4-6.2 7.08-5.38 8.75-4.55 10.65-4.55L10.65-4.55Q12.85-4.55 14.03-5.88 15.2-7.2 15.2-9.45L15.2-9.45Q15.2-11.5 14.1-12.78 13-14.05 10.1-15.25L10.1-15.25Q5.4-17.2 3.4-19.6 1.4-22 1.4-25.65L1.4-25.65Q1.4-28.5 2.75-30.7 4.1-32.9 6.5-34.15 8.9-35.4 11.9-35.4L11.9-35.4ZM37.7-5.4L40-1.2Q38.75-0.2 37.17 0.3 35.6 0.8 34 0.8L34 0.8Q30.35 0.8 28.5-1.28 26.65-3.35 26.65-6.9L26.65-6.9 26.65-21.65 23.7-21.65 23.7-26.5 26.65-26.5 26.65-32.3 33.45-33.15 33.45-26.5 38.4-26.5 37.75-21.65 33.45-21.65 33.45-6.95Q33.45-4.65 35.35-4.65L35.35-4.65Q36-4.65 36.5-4.83 37-5 37.7-5.4L37.7-5.4ZM54.39-27.2Q55.55-27.2 56.45-26.85L56.45-26.85 55.34-20.3Q54.45-20.6 53.49-20.6L53.49-20.6Q51.59-20.6 50.55-19.03 49.49-17.45 48.95-14.35L48.95-14.35 48.95 0 42.14 0 42.14-26.5 48.09-26.5 48.59-22Q50.45-27.2 54.39-27.2L54.39-27.2ZM68.59-27.3Q73.69-27.3 76.54-23.75 79.39-20.2 79.39-13.25L79.39-13.25Q79.39-6.6 76.52-2.9 73.64 0.8 68.59 0.8L68.59 0.8Q63.54 0.8 60.67-2.8 57.79-6.4 57.79-13.25L57.79-13.25Q57.79-20.05 60.64-23.68 63.49-27.3 68.59-27.3L68.59-27.3ZM68.59-22.15Q66.64-22.15 65.74-20.13 64.84-18.1 64.84-13.25L64.84-13.25Q64.84-8.35 65.74-6.33 66.64-4.3 68.59-4.3L68.59-4.3Q70.54-4.3 71.44-6.35 72.34-8.4 72.34-13.25L72.34-13.25Q72.34-18.15 71.44-20.15 70.54-22.15 68.59-22.15L68.59-22.15ZM96.39-27.3Q99.24-27.3 100.89-25.25 102.54-23.2 102.54-19.75L102.54-19.75 102.54 0 95.74 0 95.74-19Q95.74-20.65 95.29-21.35 94.84-22.05 93.94-22.05L93.94-22.05Q92.14-22.05 90.24-18.45L90.24-18.45 90.24 0 83.44 0 83.44-26.5 89.39-26.5 89.89-23.15Q91.19-25.2 92.74-26.25 94.29-27.3 96.39-27.3L96.39-27.3ZM125.89-30.15L127.59-25.1Q125.64-24.1 121.39-24.1L121.39-24.1Q123.54-23.05 124.56-21.43 125.59-19.8 125.59-17.3L125.59-17.3Q125.59-13.3 123.09-10.85 120.59-8.4 116.24-8.4L116.24-8.4Q115.09-8.4 113.79-8.75L113.79-8.75Q112.94-8.15 112.94-6.9L112.94-6.9Q112.94-5.95 113.46-5.48 113.99-5 115.49-5L115.49-5 118.19-5Q122.34-5 124.74-2.93 127.14-0.85 127.14 2.45L127.14 2.45Q127.14 6.3 124.14 8.63 121.14 10.95 115.64 10.95L115.64 10.95Q109.69 10.95 107.36 8.83 105.04 6.7 105.04 2.6L105.04 2.6 111.14 2.6Q111.14 4.6 112.06 5.48 112.99 6.35 115.69 6.35L115.69 6.35Q118.19 6.35 119.26 5.45 120.34 4.55 120.34 2.9L120.34 2.9Q120.34 1.3 119.46 0.55 118.59-0.2 116.74-0.2L116.74-0.2 114.74-0.2Q110.89-0.2 109.11-1.6 107.34-3 107.34-5.35L107.34-5.35Q107.34-8 110.09-10.15L110.09-10.15Q107.99-11.45 107.04-13.25 106.09-15.05 106.09-17.7L106.09-17.7Q106.09-22.1 108.74-24.65 111.39-27.2 115.94-27.2L115.94-27.2Q119.19-27.2 121.29-27.95 123.39-28.7 125.89-30.15L125.89-30.15ZM115.99-22.7Q114.39-22.7 113.56-21.55 112.74-20.4 112.74-17.8L112.74-17.8Q112.74-15.35 113.56-14.08 114.39-12.8 115.94-12.8L115.94-12.8Q117.54-12.8 118.31-13.95 119.09-15.1 119.09-17.9L119.09-17.9Q119.09-20.4 118.34-21.55 117.59-22.7 115.99-22.7L115.99-22.7ZM2.65 16.75L9.75 16.75 9.75 51.35 2.65 51.35 2.65 16.75ZM27.9 24.05Q30.75 24.05 32.4 26.1 34.05 28.15 34.05 31.6L34.05 31.6 34.05 51.35 27.25 51.35 27.25 32.35Q27.25 30.7 26.8 30 26.35 29.3 25.45 29.3L25.45 29.3Q23.65 29.3 21.75 32.9L21.75 32.9 21.75 51.35 14.95 51.35 14.95 24.85 20.9 24.85 21.4 28.2Q22.7 26.15 24.25 25.1 25.8 24.05 27.9 24.05L27.9 24.05ZM51.45 24.85L58.1 24.85 51.35 51.35 43.3 51.35 36.35 24.85 43.35 24.85 47.35 46.05 51.45 24.85ZM80.04 37.5Q80.04 38.05 79.89 40.15L79.89 40.15 66.34 40.15Q66.54 44.05 67.72 45.55 68.89 47.05 70.99 47.05L70.99 47.05Q72.44 47.05 73.69 46.52 74.94 46 76.39 44.9L76.39 44.9 79.19 48.65Q75.59 52.15 70.54 52.15L70.54 52.15Q65.19 52.15 62.34 48.5 59.49 44.85 59.49 38.3L59.49 38.3Q59.49 31.75 62.19 27.9 64.89 24.05 69.94 24.05L69.94 24.05Q74.69 24.05 77.37 27.47 80.04 30.9 80.04 37.5L80.04 37.5ZM73.44 35.95L73.44 35.55Q73.44 31.95 72.64 30.32 71.84 28.7 69.99 28.7L69.99 28.7Q68.29 28.7 67.42 30.3 66.54 31.9 66.34 35.95L66.34 35.95 73.44 35.95ZM91.54 24.05Q93.99 24.05 96.07 24.87 98.14 25.7 99.69 27.25L99.69 27.25 97.14 30.95Q94.44 29 92.09 29L92.09 29Q90.74 29 89.99 29.67 89.24 30.35 89.24 31.6L89.24 31.6Q89.24 32.45 89.62 33.03 89.99 33.6 90.94 34.17 91.89 34.75 93.84 35.55L93.84 35.55Q97.24 36.9 98.84 38.72 100.44 40.55 100.44 43.65L100.44 43.65Q100.44 47.6 97.69 49.87 94.94 52.15 90.64 52.15L90.64 52.15Q87.89 52.15 85.54 51.15 83.19 50.15 81.49 48.35L81.49 48.35 84.69 44.8Q87.69 47.25 90.34 47.25L90.34 47.25Q91.84 47.25 92.69 46.45 93.54 45.65 93.54 44.25L93.54 44.25Q93.54 42.7 92.64 41.82 91.74 40.95 88.94 39.85L88.94 39.85Q85.49 38.45 84.02 36.65 82.54 34.85 82.54 32.05L82.54 32.05Q82.54 29.8 83.62 27.97 84.69 26.15 86.74 25.1 88.79 24.05 91.54 24.05L91.54 24.05ZM115.44 45.95L117.74 50.15Q116.49 51.15 114.91 51.65 113.34 52.15 111.74 52.15L111.74 52.15Q108.09 52.15 106.24 50.07 104.39 48 104.39 44.45L104.39 44.45 104.39 29.7 101.44 29.7 101.44 24.85 104.39 24.85 104.39 19.05 111.19 18.2 111.19 24.85 116.14 24.85 115.49 29.7 111.19 29.7 111.19 44.4Q111.19 46.7 113.09 46.7L113.09 46.7Q113.74 46.7 114.24 46.52 114.74 46.35 115.44 45.95L115.44 45.95ZM144.09 24.05Q146.69 24.05 148.29 26.12 149.89 28.2 149.89 31.6L149.89 31.6 149.89 51.35 143.24 51.35 143.24 32.3Q143.24 30.65 142.81 29.95 142.39 29.25 141.59 29.25L141.59 29.25Q139.84 29.25 138.24 32.55L138.24 32.55 138.24 51.35 131.64 51.35 131.64 32.3Q131.64 29.25 129.94 29.25L129.94 29.25Q128.14 29.25 126.54 32.55L126.54 32.55 126.54 51.35 119.89 51.35 119.89 24.85 125.84 24.85 126.24 28.2Q127.49 26.2 129.01 25.12 130.53 24.05 132.49 24.05L132.49 24.05Q134.34 24.05 135.66 25.17 136.99 26.3 137.69 28.4L137.69 28.4Q140.34 24.05 144.09 24.05L144.09 24.05ZM174.33 37.5Q174.33 38.05 174.18 40.15L174.18 40.15 160.63 40.15Q160.83 44.05 162.01 45.55 163.18 47.05 165.28 47.05L165.28 47.05Q166.73 47.05 167.98 46.52 169.23 46 170.68 44.9L170.68 44.9 173.48 48.65Q169.88 52.15 164.83 52.15L164.83 52.15Q159.48 52.15 156.63 48.5 153.78 44.85 153.78 38.3L153.78 38.3Q153.78 31.75 156.48 27.9 159.18 24.05 164.23 24.05L164.23 24.05Q168.98 24.05 171.66 27.47 174.33 30.9 174.33 37.5L174.33 37.5ZM167.73 35.95L167.73 35.55Q167.73 31.95 166.93 30.32 166.13 28.7 164.28 28.7L164.28 28.7Q162.58 28.7 161.71 30.3 160.83 31.9 160.63 35.95L160.63 35.95 167.73 35.95ZM191.08 24.05Q193.93 24.05 195.58 26.1 197.23 28.15 197.23 31.6L197.23 31.6 197.23 51.35 190.43 51.35 190.43 32.35Q190.43 30.7 189.98 30 189.53 29.3 188.63 29.3L188.63 29.3Q186.83 29.3 184.93 32.9L184.93 32.9 184.93 51.35 178.13 51.35 178.13 24.85 184.08 24.85 184.58 28.2Q185.88 26.15 187.43 25.1 188.98 24.05 191.08 24.05L191.08 24.05ZM213.78 45.95L216.08 50.15Q214.83 51.15 213.25 51.65 211.68 52.15 210.08 52.15L210.08 52.15Q206.43 52.15 204.58 50.07 202.73 48 202.73 44.45L202.73 44.45 202.73 29.7 199.78 29.7 199.78 24.85 202.73 24.85 202.73 19.05 209.53 18.2 209.53 24.85 214.48 24.85 213.83 29.7 209.53 29.7 209.53 44.4Q209.53 46.7 211.43 46.7L211.43 46.7Q212.08 46.7 212.58 46.52 213.08 46.35 213.78 45.95L213.78 45.95ZM225.93 24.05Q228.38 24.05 230.45 24.87 232.53 25.7 234.08 27.25L234.08 27.25 231.53 30.95Q228.83 29 226.48 29L226.48 29Q225.13 29 224.38 29.67 223.63 30.35 223.63 31.6L223.63 31.6Q223.63 32.45 224 33.03 224.38 33.6 225.33 34.17 226.28 34.75 228.23 35.55L228.23 35.55Q231.63 36.9 233.23 38.72 234.83 40.55 234.83 43.65L234.83 43.65Q234.83 47.6 232.08 49.87 229.33 52.15 225.03 52.15L225.03 52.15Q222.28 52.15 219.93 51.15 217.58 50.15 215.88 48.35L215.88 48.35 219.08 44.8Q222.08 47.25 224.73 47.25L224.73 47.25Q226.23 47.25 227.08 46.45 227.93 45.65 227.93 44.25L227.93 44.25Q227.93 42.7 227.03 41.82 226.13 40.95 223.33 39.85L223.33 39.85Q219.88 38.45 218.4 36.65 216.93 34.85 216.93 32.05L216.93 32.05Q216.93 29.8 218 27.97 219.08 26.15 221.13 25.1 223.18 24.05 225.93 24.05L225.93 24.05Z" opacity="1" transform="matrix(1,0,0,1,0,0)" fill="#ffffff" data-fill-palette-color="primary" data-stroke-palette-color="transparent" id="text-0" class="wordmark-0"></path></svg></g><g></g><g></g><g></g><g></g><g></g><g></g><g></g><g></g><g></g><g></g></g></svg></g></svg>