<svg style="fill: #1890ff" width="500" height="500" viewBox="0 0 500 500" xmlns="http://www.w3.org/2000/svg"><path d="M258.082 182.285c-5.566-12.988-8.35-27.05-8.35-42.187 0-15.137 2.808-29.175 8.423-42.115 5.616-12.94 13.306-23.877 23.072-32.812 9.765-8.936 21.362-15.942 34.79-21.02 13.427-5.079 27.807-7.618 43.14-7.618 15.331 0 29.736 2.54 43.212 7.617 13.477 5.079 25.073 12.085 34.79 21.02 9.717 8.936 17.407 19.874 23.071 32.813 5.665 12.94 8.497 26.978 8.497 42.115 0 15.136-2.832 29.174-8.497 42.114-5.664 12.94-13.354 23.877-23.07 32.812-9.718 8.936-21.314 15.943-34.79 21.02-13.477 5.08-27.882 7.618-43.214 7.618-15.332 0-29.712-2.539-43.14-7.617-13.427-5.078-25.024-12.085-34.79-21.02-9.765-8.936-17.48-19.85-23.144-32.74zM32.057 360.098c0-15.625 2.88-30.005 8.642-43.14 5.762-13.135 13.623-24.072 23.584-32.812 9.961-8.74 21.631-15.528 35.01-20.362 13.379-4.834 27.637-7.25 42.773-7.25 9.278 0 18.042 1 26.294 3.002 8.252 2.002 15.503 4.663 21.753 7.984a91.912 91.912 0 0 1 17.285 11.865c5.274 4.59 9.717 9.301 13.33 14.136a96.681 96.681 0 0 1 9.376 15.307l-51.124 26.074c-3.222-6.836-8.08-12.695-14.575-17.578-6.494-4.883-13.94-7.324-22.339-7.324-14.355 0-26.025 4.81-35.01 14.429-8.984 9.619-13.476 21.508-13.476 35.669 0 14.16 4.492 26.05 13.477 35.669 8.984 9.619 20.654 14.428 35.01 14.428 7.617 0 14.623-1.538 21.02-4.614 6.396-3.076 11.597-7.056 15.6-11.938h-42.48v-52.735h109.13c0 39.258-9.74 69.531-29.223 90.82-19.482 21.29-46.118 31.934-79.907 31.934-13.672 0-26.782-2.441-39.331-7.324-12.549-4.883-23.633-11.694-33.252-20.435-9.62-8.74-17.285-19.677-22.998-32.812-5.713-13.135-8.57-27.466-8.57-42.993zm226.025 42.187c-5.566-12.988-8.35-27.05-8.35-42.187 0-15.137 2.808-29.175 8.423-42.115 5.616-12.94 13.306-23.877 23.072-32.812 9.765-8.936 21.362-15.942 34.79-21.02 13.427-5.079 27.807-7.618 43.14-7.618 15.331 0 29.736 2.54 43.212 7.617 13.477 5.079 25.073 12.085 34.79 21.02 9.717 8.936 17.407 19.874 23.071 32.813 5.665 12.94 8.497 26.978 8.497 42.115 0 15.136-2.832 29.174-8.497 42.114-5.664 12.94-13.354 23.877-23.07 32.812-9.718 8.936-21.314 15.943-34.79 21.02-13.477 5.08-27.882 7.618-43.214 7.618-15.332 0-29.712-2.539-43.14-7.617-13.427-5.078-25.024-12.085-34.79-21.02-9.765-8.936-17.48-19.85-23.144-32.74zm66.897-292.457c-8.09 8.726-12.135 19.589-12.135 32.59 0 13 4.067 23.862 12.202 32.588 8.135 8.726 18.763 13.09 31.887 13.09 13.123 0 23.774-4.364 31.954-13.09 8.18-8.726 12.269-19.589 12.269-32.589s-4.09-23.863-12.27-32.59c-8.179-8.725-18.83-13.088-31.953-13.088-13.124 0-23.775 4.363-31.954 13.089zm0 220c-8.09 8.726-12.135 19.589-12.135 32.59 0 13 4.067 23.862 12.202 32.588 8.135 8.726 18.763 13.09 31.887 13.09 13.123 0 23.774-4.364 31.954-13.09 8.18-8.726 12.269-19.589 12.269-32.589s-4.09-23.863-12.27-32.59c-8.179-8.725-18.83-13.088-31.953-13.088-13.124 0-23.775 4.363-31.954 13.089zM111 183h118.5a3 3 0 0 1 3 3v56.016a3 3 0 0 1-2.984 3l-183.5.969a3 3 0 0 1-3.016-3V47a2 2 0 0 1 2-2h64a2 2 0 0 1 2 2v136z" fill="#FFF"></path></svg>