<?xml version="1.0" encoding="utf-8"?>
<!-- Generator: Adobe Illustrator 24.0.0, SVG Export Plug-In . SVG Version: 6.00 Build 0)  -->
<svg version="1.1" id="Layer_1" xmlns="http://www.w3.org/2000/svg" xmlns:xlink="http://www.w3.org/1999/xlink" x="0px" y="0px"
	 width="661.6px" height="93px" viewBox="0 0 661.6 93" style="enable-background:new 0 0 661.6 93;" xml:space="preserve">
<style type="text/css">
	.st0{fill:#FFFFFF;}
	.st1{enable-background:new    ;}
</style>
<g>
	<g>
		<path class="st0" d="M128.5,66.3h-15.6V24.4h15.6c13.1,0,22.2,9,22.2,20.9C150.7,57.1,141.6,66.3,128.5,66.3z M128.5,31.1h-8.2
			v28.4h8.2c8.8,0,14.5-5.9,14.5-14.2S137.3,31.1,128.5,31.1z"/>
		<path class="st0" d="M185.6,67c-12.8,0-21.8-9.7-21.8-21.6s9.1-21.7,21.9-21.7c12.8,0,21.8,9.7,21.8,21.6
			C207.5,57.1,198.4,67,185.6,67z M185.6,30.5c-8.3,0-14.1,6.6-14.1,14.8s5.9,14.9,14.2,14.9s14.1-6.6,14.1-14.8
			S193.9,30.5,185.6,30.5z"/>
		<path class="st0" d="M242.9,56h-0.2l-13.1-19.6v29.9h-7.2V24.4h7.8l12.7,19.8l12.7-19.8h7.8v41.8h-7.3v-30L242.9,56z"/>
		<path class="st0" d="M320.2,66.3h-7.8l-4.2-10.1h-19.8l-4.3,10.1h-7.5L295,24.1h6.8L320.2,66.3z M298.3,32.9l-7.2,16.7h14.4
			L298.3,32.9z"/>
		<path class="st0" d="M341.2,24.4v41.8h-7.3V24.4H341.2z"/>
		<path class="st0" d="M387.5,24.4h7.2v41.8h-6.2l-23.1-29.8v29.8h-7.2V24.4h6.8l22.4,28.9V24.4H387.5z"/>
		<path class="st0" d="M429.2,66.3h-7.4v-35h-13.3v-6.8h33.9v6.8h-13.3L429.2,66.3L429.2,66.3z"/>
		<path class="st0" d="M473.9,67c-12.8,0-21.8-9.7-21.8-21.6s9.1-21.7,21.9-21.7s21.8,9.7,21.8,21.6C495.8,57.1,486.7,67,473.9,67z
			 M473.9,30.5c-8.3,0-14.1,6.6-14.1,14.8s5.9,14.9,14.2,14.9s14.1-6.6,14.1-14.8S482.2,30.5,473.9,30.5z"/>
		<path class="st0" d="M530.6,67c-12.8,0-21.8-9.7-21.8-21.6s9.1-21.7,21.9-21.7c12.8,0,21.8,9.7,21.8,21.6
			C552.6,57.1,543.5,67,530.6,67z M530.6,30.5c-8.3,0-14.1,6.6-14.1,14.8s5.9,14.9,14.2,14.9s14.1-6.6,14.1-14.8
			S538.9,30.5,530.6,30.5z"/>
		<path class="st0" d="M567.4,24.4h7.3v35.1h22v6.7h-29.3V24.4z"/>
		<path class="st0" d="M626.5,42c8.8,2.2,13.4,5.3,13.4,12.3c0,7.9-6.2,12.5-14.9,12.5c-6.4,0-12.4-2.2-17.4-6.7l4.4-5.3
			c4,3.5,8,5.4,13.2,5.4c4.5,0,7.4-2.1,7.4-5.3c0-3-1.7-4.7-9.4-6.5c-8.9-2.2-13.9-4.8-13.9-12.5c0-7.3,6-12.2,14.3-12.2
			c6.1,0,10.9,1.9,15.2,5.3l-3.9,5.6c-3.8-2.8-7.5-4.3-11.4-4.3c-4.3,0-6.8,2.2-6.8,5C616.6,38.7,618.5,40.1,626.5,42z"/>
		<g>
			<path class="st0" d="M650.8,29.1c0-0.8,0.1-1.5,0.4-2.2c0.3-0.7,0.7-1.2,1.1-1.7c0.5-0.5,1.1-0.9,1.7-1.1s1.4-0.4,2.1-0.4
				c0.8,0,1.5,0.1,2.1,0.4s1.2,0.6,1.7,1.1s0.9,1,1.1,1.7c0.3,0.7,0.4,1.4,0.4,2.2s-0.1,1.5-0.4,2.2c-0.3,0.7-0.7,1.2-1.1,1.7
				c-0.5,0.5-1.1,0.9-1.7,1.1c-0.7,0.3-1.4,0.4-2.1,0.4c-0.8,0-1.5-0.1-2.1-0.4c-0.7-0.3-1.2-0.6-1.7-1.1s-0.9-1-1.1-1.7
				C650.9,30.6,650.8,29.9,650.8,29.1z M652,29.1c0,0.6,0.1,1.2,0.3,1.7s0.5,1,0.9,1.4c0.4,0.4,0.8,0.7,1.3,0.9s1.1,0.3,1.7,0.3
				c0.6,0,1.2-0.1,1.7-0.3s1-0.5,1.3-0.9c0.4-0.4,0.7-0.9,0.9-1.4s0.3-1.1,0.3-1.7s-0.1-1.2-0.3-1.7s-0.5-1-0.9-1.4
				s-0.8-0.7-1.3-0.9s-1.1-0.3-1.7-0.3c-0.6,0-1.2,0.1-1.7,0.3s-1,0.5-1.3,0.9c-0.4,0.4-0.7,0.9-0.9,1.4C652.1,28,652,28.5,652,29.1
				z M657,29.6l1.5,2.2h-1.3l-1.4-2.1h-0.6v2.1h-1.1v-5.5h1.9c0.3,0,0.6,0,0.8,0.1c0.3,0.1,0.5,0.2,0.7,0.3c0.2,0.1,0.4,0.3,0.5,0.5
				s0.2,0.5,0.2,0.8c0,0.4-0.1,0.8-0.4,1.1C657.8,29.3,657.4,29.5,657,29.6L657,29.6z M655.3,27.3v1.5h0.6c0.4,0,0.8-0.1,1-0.2
				s0.3-0.3,0.3-0.6c0-0.2-0.1-0.4-0.2-0.5c-0.1-0.1-0.4-0.2-0.8-0.2C656.2,27.3,655.3,27.3,655.3,27.3z"/>
		</g>
	</g>
	<g>
		<path class="st0" d="M22.4,55.4c-2.9-4.4-5-9-6.3-13.6L4,38V26.1l-4,7.2V41l12.5,3.7c1.3,5,4,10,7.1,14.5L22.4,55.4z"/>
		<polygon class="st0" points="17.4,66.1 14.9,69.8 24.2,79.1 27.7,76.6 		"/>
		<path class="st0" d="M55.6,89l-3.8-11.3c-4.9-1.4-9.4-3.1-13.5-5.8l-3.6,2.7c4.5,3.1,9.3,5.2,14.3,6.5L52.6,93h11.8l3.7-4H55.6z"
			/>
	</g>
	<path class="st0" d="M92.9,49.1l-2.7-9.4L83.1,37c-1.7-3.9-3.9-7.6-6.5-11l2.4-5.1l-7.2-7.1l-5.1,2.5c-3.4-2.6-7-4.8-10.9-6.4
		l-2.7-7.2L43.9,0l-0.6,6.6c-4-0.3-7.8,0.1-11.2,1.3l-8.2-6.2l-7.8,4.5l6.1,8.2c-2.5,2.9-4.3,6.4-5.1,10.6L6,24.8v11.8l11.7,3.7
		c1.4,5.2,3.8,10.4,7.1,15.1l-6.2,9.2l10.6,10.7l9-6.4c4.7,3.3,9.8,5.8,15.1,7.1L57,88h11.8l-0.3-11.3c4.2-0.9,7.8-2.8,10.6-5.3
		l8.3,6.2l4.4-8l-6.4-8.3c1.1-3.5,1.3-7.4,0.9-11.5L92.9,49.1z M59.2,65.3c-15.3-1.1-29.8-15.8-31-31.1C27.1,20.3,37.8,12.6,51,15.7
		c12.1,2.8,23.5,14.1,26.5,26.4C80.6,55.4,73.1,66.4,59.2,65.3z"/>
	<g>
		<path class="st0" d="M19.8,14.3l-4.7-6.4l-1.4,4.5l3.7,5.7C18.1,16.8,18.9,15.5,19.8,14.3z"/>
	</g>
	<g>
		<path class="st0" d="M79.2,73.7c-1.2,0.9-2.5,1.7-3.9,2.4l6.4,4.8l4.1-2.3L79.2,73.7z"/>
	</g>
	<g>
		<g class="st1">
			<g>
				<path class="st0" d="M53.3,45.6l-2.1-13.9l3.2,0.6c0.9,0.2,1.8,0.5,2.6,1s1.5,1,2.2,1.7c0.6,0.7,1.2,1.4,1.6,2.3
					c0.4,0.9,0.7,1.8,0.9,2.8s0.2,1.9,0.1,2.7c-0.1,0.8-0.4,1.5-0.9,2c-0.4,0.5-1,0.9-1.7,1.1c-0.7,0.2-1.6,0.3-2.5,0.2L53.3,45.6
					 M53.4,26.7l-9-2.1l3.5,26.7l9.7,1c1.8,0.2,3.4,0,4.8-0.5c1.3-0.5,2.4-1.3,3.2-2.4c0.8-1,1.3-2.3,1.6-3.8
					c0.2-1.4,0.2-3.1-0.2-4.8c-0.4-1.7-1-3.4-1.8-4.9s-1.8-2.9-3-4.1c-1.2-1.2-2.5-2.3-4-3.2C56.8,27.8,55.1,27.1,53.4,26.7"/>
			</g>
		</g>
	</g>
</g>
</svg>
