<svg xmlns="http://www.w3.org/2000/svg" version="1.1" xmlns:xlink="http://www.w3.org/1999/xlink" xmlns:svgjs="http://svgjs.com/svgjs" width="1000" height="268" viewBox="0 0 1000 268"><g transform="matrix(1,0,0,1,0.3870905591064684,0.40200725733461695)"><svg xmlns="http://www.w3.org/2000/svg" version="1.1" xmlns:xlink="http://www.w3.org/1999/xlink" xmlns:svgjs="http://svgjs.com/svgjs" viewBox="0 0 447 120" data-background-color="#001f3f" preserveAspectRatio="xMidYMid meet" height="268" width="1000"><defs></defs><g id="tight-bounds" transform="matrix(1,0,0,1,-0.8269705200794988,-0.18000324955281144)"><svg viewBox="0 0 448 120.36000649910574" height="120.36000649910574" width="448"><g><svg viewBox="0 0 1028.8068570428336 276.4" height="120.36000649910574" width="448"><g transform="matrix(1,0,0,1,0,38.19999999999999)"><svg viewBox="0 0 603.699036918138 200" height="200" width="603.699036918138"><g><svg viewBox="0 0 603.699036918138 200" height="200" width="603.699036918138"><g transform="matrix(1,0,0,1,1.5017388978062627,0)"><svg viewBox="0 0 600.6955591225254 200" height="200" width="600.6955591225254"><g><svg viewBox="0.98 -36.89 112.27 37.38" width="600.6955591225254" height="200" x="0" y="0" data-palette-color="#ffffff"><path d="M29.93-35.55L29.93-29.61 19.04-29.61 19.04 0 11.72 0 11.72-29.61 0.98-29.61 0.98-35.55 29.93-35.55ZM41.09-26.42L41.09 0 34.01 0 34.01-26.42 41.09-26.42ZM33.59-33.25L33.59-33.25Q33.59-34.84 34.65-35.86 35.72-36.89 37.55-36.89L37.55-36.89Q39.35-36.89 40.43-35.86 41.5-34.84 41.5-33.25L41.5-33.25Q41.5-31.64 40.41-30.62 39.33-29.59 37.55-29.59 35.76-29.59 34.68-30.62 33.59-31.64 33.59-33.25ZM48.29-32.91L55.34-32.91 55.34-26.42 59.86-26.42 59.86-21.24 55.34-21.24 55.34-8.06Q55.34-6.59 55.9-5.96 56.46-5.32 58.05-5.32L58.05-5.32Q59.22-5.32 60.13-5.49L60.13-5.49 60.13-0.15Q58.05 0.49 55.85 0.49L55.85 0.49Q48.43 0.49 48.29-7.01L48.29-7.01 48.29-21.24 44.43-21.24 44.43-26.42 48.29-26.42 48.29-32.91ZM86.22 0L79.09 0Q78.61-0.95 78.39-2.37L78.39-2.37Q75.82 0.49 71.72 0.49L71.72 0.49Q67.84 0.49 65.29-1.76 62.74-4 62.74-7.42L62.74-7.42Q62.74-11.62 65.85-13.87 68.96-16.11 74.85-16.14L74.85-16.14 78.09-16.14 78.09-17.65Q78.09-19.48 77.15-20.58 76.21-21.68 74.19-21.68L74.19-21.68Q72.4-21.68 71.39-20.83 70.38-19.97 70.38-18.48L70.38-18.48 63.32-18.48Q63.32-20.78 64.74-22.73 66.15-24.68 68.74-25.79 71.33-26.9 74.55-26.9L74.55-26.9Q79.44-26.9 82.3-24.45 85.17-22 85.17-17.55L85.17-17.55 85.17-6.1Q85.2-2.34 86.22-0.42L86.22-0.42 86.22 0ZM73.26-4.91L73.26-4.91Q74.82-4.91 76.14-5.6 77.46-6.3 78.09-7.47L78.09-7.47 78.09-12.01 75.46-12.01Q70.16-12.01 69.82-8.35L69.82-8.35 69.79-7.93Q69.79-6.62 70.72-5.76 71.65-4.91 73.26-4.91ZM90.44-26.42L97.08-26.42 97.3-23.36Q100.14-26.9 104.9-26.9L104.9-26.9Q109.1-26.9 111.15-24.44 113.2-21.97 113.25-17.07L113.25-17.07 113.25 0 106.19 0 106.19-16.89Q106.19-19.14 105.21-20.15 104.24-21.17 101.97-21.17L101.97-21.17Q98.99-21.17 97.5-18.63L97.5-18.63 97.5 0 90.44 0 90.44-26.42Z" opacity="1" transform="matrix(1,0,0,1,0,0)" fill="#ffffff" class="undefined-text-0" data-fill-palette-color="primary" data-stroke-palette-color="transparent" id="text-0"></path></svg><svg xmlns="http://www.w3.org/2000/svg" version="1.1" xmlns:xlink="http://www.w3.org/1999/xlink" xmlns:svgjs="http://svgjs.com/svgjs"></svg></g></svg></g></svg></g></svg></g><g transform="matrix(1,0,0,1,632.883836918138,0)"><svg viewBox="0 0 395.9230201246956 276.4" height="276.4" width="395.9230201246956"><g><svg xmlns:xl="http://www.w3.org/1999/xlink" xmlns:dc="http://purl.org/dc/elements/1.1/" xmlns="http://www.w3.org/2000/svg" xmlns:xlink="http://www.w3.org/1999/xlink" version="1.1" x="0" y="0" viewBox="-313.57518031594924 367.575 87.16322639141737 60.85000000000008" enable-background="new -320 350 100 100" xml:space="preserve" height="276.4" width="395.9230201246956" class="icon-icon-0" fill="#ffffff" data-fill-palette-color="accent" data-stroke-palette-color="transparent" id="icon-0"><path d="M-226.743,381.392c-2.018-5.242-11.852-4.894-20.469-3.466c-5.58-6.339-13.745-10.351-22.834-10.351  c-16.775,0-30.425,13.648-30.425,30.425c0,0.133,0.008,0.264,0.01,0.396c-7.334,4.705-14.788,10.992-12.783,16.208  c1.265,3.291,5.614,4.378,10.812,4.378c3.048,0,6.377-0.382,9.556-0.905c5.58,6.338,13.744,10.348,22.831,10.348  c16.778,0,30.425-13.649,30.425-30.425c0-0.112-0.007-0.222-0.008-0.333C-232.263,392.956-224.729,386.635-226.743,381.392z   M-270.046,373.107c13.123,0,23.9,10.214,24.822,23.108c-2.445,1.428-5.076,2.835-7.854,4.205c-1.704-2.767-4.751-4.617-8.24-4.617  c-5.346,0-9.681,4.332-9.681,9.681c0,0.814,0.112,1.601,0.301,2.356c-6.638,2.365-13.101,4.212-18.989,5.426  c-3.287-4.219-5.251-9.516-5.251-15.266C-294.939,384.275-283.773,373.107-270.046,373.107z M-309.371,413.116  c-0.468-1.219,1.792-4.876,9.334-10.025c0.689,4.072,2.19,7.869,4.331,11.224C-304.768,415.539-308.903,414.335-309.371,413.116z   M-270.046,422.894c-6.234,0-11.936-2.309-16.308-6.109c5.528-1.267,11.461-3.022,17.521-5.202c1.775,2.184,4.48,3.581,7.514,3.581  c5.347,0,9.681-4.335,9.681-9.68c0-0.377-0.027-0.748-0.069-1.113c2.214-1.082,4.337-2.189,6.36-3.312  C-246.861,413.346-257.358,422.894-270.046,422.894z M-240.045,392.969c-0.684-4.091-2.187-7.907-4.334-11.275  c9.126-1.245,13.292-0.036,13.764,1.187C-230.146,384.104-232.43,387.789-240.045,392.969z" fill="#ffffff" data-fill-palette-color="accent" data-stroke-palette-color="transparent"></path></svg></g></svg></g></svg></g></svg></g></svg></g></svg>